<svg width="78" height="48" viewBox="0 0 78 48" fill="none" xmlns="http://www.w3.org/2000/svg">
<path d="M42.399 2.4397L34.1498 30.271C33.9105 31.0773 33.1697 31.6298 32.3291 31.6298H29.3193C28.4661 31.6298 27.7181 31.0607 27.4903 30.2388L23.0072 14.0858C22.4964 12.2464 19.8965 12.2256 19.3565 14.0566L14.577 30.2783C14.3409 31.0804 13.6074 31.6339 12.7709 31.6402L9.80166 31.663C8.94646 31.6693 8.19322 31.1044 7.96018 30.2814L0.0730296 2.41577C-0.270297 1.20372 0.640038 0 1.89994 0H3.41994C4.28866 0 5.04606 0.588857 5.26038 1.43053L9.68305 18.8143C10.1637 20.7026 12.8354 20.7286 13.3535 18.8507L18.1653 1.39412C18.3921 0.570133 19.1412 0 19.9953 0H22.9032C23.7699 0 24.5262 0.586778 24.7416 1.42533L29.1351 18.4835C29.6241 20.3832 32.3228 20.3832 32.8129 18.4835L37.2064 1.42533C37.4228 0.586778 38.1792 0 39.0448 0H40.5825C41.8517 0 42.7631 1.22141 42.4031 2.43866L42.399 2.4397Z" fill="white"/>
<path d="M35.601 29.2376L43.8502 1.40625C44.0895 0.599948 44.8302 0.0475044 45.6709 0.0475044H48.6807C49.5338 0.0475044 50.2819 0.616594 50.5097 1.4385L54.9927 17.5915C55.5035 19.4309 58.1035 19.4517 58.6434 17.6206L63.4229 1.39896C63.6591 0.596826 64.3926 0.0433422 65.229 0.0370999L68.1983 0.0142114C69.0535 0.00796907 69.8067 0.572897 70.0398 1.39584L77.9269 29.2615C78.2703 30.4735 77.3599 31.6773 76.1 31.6773H74.58C73.7113 31.6773 72.9539 31.0884 72.7396 30.2467L68.3169 12.863C67.8362 10.9747 65.1645 10.9486 64.6464 12.8265L59.8347 30.2831C59.6079 31.1071 58.8588 31.6773 58.0046 31.6773H55.0967C54.2301 31.6773 53.4737 31.0905 53.2584 30.2519L48.8648 13.1938C48.3759 11.2941 45.6771 11.2941 45.1871 13.1938L40.7935 30.2519C40.5771 31.0905 39.8208 31.6773 38.9552 31.6773H37.4175C36.1482 31.6773 35.2369 30.4558 35.5968 29.2386L35.601 29.2376Z" fill="#E3FF04"/>
<path d="M37.4342 29.0166L43.2301 9.29714C43.4569 8.52413 42.7526 7.81979 41.7736 7.74072L39.7979 7.88117C39.6824 7.88949 39.5784 7.92175 39.4702 7.94568C38.9479 8.12462 38.5547 8.4898 38.4465 8.93404C38.4465 8.93404 34.5908 23.8531 33.9541 25.961L33.2934 28.5931C33.0666 29.3661 33.771 30.0705 34.75 30.1496L35.8632 30.0705C36.6268 30.0164 37.2667 29.5877 37.4342 29.0166Z" fill="black"/>
<path d="M42.478 7.369C44.2511 7.369 45.6886 5.93156 45.6886 4.15838C45.6886 2.3852 44.2511 0.947754 42.478 0.947754C40.7048 0.947754 39.2673 2.3852 39.2673 4.15838C39.2673 5.93156 40.7048 7.369 42.478 7.369Z" fill="black"/>
<path d="M2.10476 42.2548C2.10476 41.802 2.20908 41.3959 2.41771 41.0363C2.63078 40.6768 2.91709 40.3971 3.27665 40.1973C3.64065 39.9932 4.03793 39.8911 4.46851 39.8911C4.96124 39.8911 5.39848 40.0131 5.78023 40.2573C6.16642 40.497 6.44608 40.8388 6.6192 41.2827H5.70699C5.58713 41.0385 5.42067 40.8565 5.2076 40.7367C4.99453 40.6168 4.74817 40.5569 4.46851 40.5569C4.16222 40.5569 3.88923 40.6257 3.64952 40.7633C3.40982 40.9009 3.22116 41.0985 3.08355 41.3559C2.95039 41.6134 2.8838 41.913 2.8838 42.2548C2.8838 42.5966 2.95039 42.8962 3.08355 43.1537C3.22116 43.4112 3.40982 43.6109 3.64952 43.753C3.88923 43.8906 4.16222 43.9594 4.46851 43.9594C4.74817 43.9594 4.99453 43.8995 5.2076 43.7796C5.42067 43.6597 5.58713 43.4777 5.70699 43.2336H6.6192C6.44608 43.6775 6.16642 44.0193 5.78023 44.259C5.39848 44.4987 4.96124 44.6186 4.46851 44.6186C4.03349 44.6186 3.63621 44.5187 3.27665 44.3189C2.91709 44.1147 2.63078 43.8329 2.41771 43.4733C2.20908 43.1138 2.10476 42.7076 2.10476 42.2548ZM14.792 41.4425C14.903 41.256 15.0495 41.1118 15.2315 41.0097C15.4179 40.9031 15.6377 40.8499 15.8907 40.8499V41.6356H15.6976C15.4002 41.6356 15.1738 41.711 15.0184 41.862C14.8675 42.0129 14.792 42.2748 14.792 42.6477V44.5786H14.033V40.9098H14.792V41.4425ZM26.4762 42.6543C26.4762 42.7919 26.4673 42.9162 26.4496 43.0272H23.6464C23.6686 43.3202 23.7773 43.5554 23.9726 43.733C24.168 43.9105 24.4077 43.9993 24.6918 43.9993C25.1001 43.9993 25.3887 43.8284 25.5574 43.4866H26.3763C26.2654 43.824 26.0634 44.1014 25.7704 44.3189C25.4819 44.532 25.1223 44.6385 24.6918 44.6385C24.3411 44.6385 24.0259 44.5609 23.7463 44.4055C23.471 44.2457 23.2535 44.0237 23.0937 43.7396C22.9384 43.4511 22.8607 43.1182 22.8607 42.7409C22.8607 42.3636 22.9361 42.0329 23.0871 41.7488C23.2424 41.4602 23.4577 41.2383 23.7329 41.0829C24.0126 40.9276 24.3322 40.8499 24.6918 40.8499C25.038 40.8499 25.3465 40.9253 25.6173 41.0763C25.8881 41.2272 26.0989 41.4403 26.2498 41.7155C26.4008 41.9863 26.4762 42.2992 26.4762 42.6543ZM25.6839 42.4146C25.6794 42.135 25.5795 41.9108 25.3842 41.7421C25.1889 41.5734 24.947 41.4891 24.6585 41.4891C24.3966 41.4891 24.1724 41.5734 23.986 41.7421C23.7995 41.9064 23.6885 42.1305 23.653 42.4146H25.6839ZM33.4955 42.7276C33.4955 42.3591 33.5709 42.0329 33.7219 41.7488C33.8772 41.4647 34.0859 41.2449 34.3478 41.0896C34.6141 40.9298 34.9071 40.8499 35.2267 40.8499C35.5152 40.8499 35.766 40.9076 35.9791 41.023C36.1966 41.134 36.3697 41.2738 36.4984 41.4425V40.9098H37.2642V44.5786H36.4984V44.0326C36.3697 44.2057 36.1944 44.35 35.9724 44.4654C35.7505 44.5808 35.4975 44.6385 35.2134 44.6385C34.8982 44.6385 34.6097 44.5586 34.3478 44.3988C34.0859 44.2346 33.8772 44.0082 33.7219 43.7197C33.5709 43.4267 33.4955 43.096 33.4955 42.7276ZM36.4984 42.7409C36.4984 42.4879 36.4452 42.2681 36.3386 42.0817C36.2365 41.8953 36.1012 41.7532 35.9325 41.6556C35.7638 41.5579 35.5818 41.5091 35.3865 41.5091C35.1912 41.5091 35.0092 41.5579 34.8405 41.6556C34.6718 41.7488 34.5342 41.8886 34.4277 42.075C34.3256 42.257 34.2745 42.4745 34.2745 42.7276C34.2745 42.9806 34.3256 43.2025 34.4277 43.3934C34.5342 43.5843 34.6718 43.7308 34.8405 43.8329C35.0136 43.9305 35.1956 43.9794 35.3865 43.9794C35.5818 43.9794 35.7638 43.9305 35.9325 43.8329C36.1012 43.7352 36.2365 43.5932 36.3386 43.4067C36.4452 43.2158 36.4984 42.9939 36.4984 42.7409ZM45.672 41.529V43.5599C45.672 43.6975 45.7031 43.7974 45.7652 43.8595C45.8318 43.9172 45.9428 43.9461 46.0982 43.9461H46.5643V44.5786H45.965C45.6232 44.5786 45.3613 44.4987 45.1793 44.3389C44.9973 44.1791 44.9063 43.9194 44.9063 43.5599V41.529H44.4735V40.9098H44.9063V39.9976H45.672V40.9098H46.5643V41.529H45.672ZM54.1754 40.4237C54.0377 40.4237 53.9223 40.3771 53.8291 40.2839C53.7359 40.1907 53.6893 40.0753 53.6893 39.9377C53.6893 39.8001 53.7359 39.6846 53.8291 39.5914C53.9223 39.4982 54.0377 39.4516 54.1754 39.4516C54.3085 39.4516 54.4217 39.4982 54.5149 39.5914C54.6082 39.6846 54.6548 39.8001 54.6548 39.9377C54.6548 40.0753 54.6082 40.1907 54.5149 40.2839C54.4217 40.3771 54.3085 40.4237 54.1754 40.4237ZM54.5482 40.9098V44.5786H53.7892V40.9098H54.5482ZM63.4883 43.8995L64.5271 40.9098H65.3327L63.9345 44.5786H63.0289L61.6373 40.9098H62.4496L63.4883 43.8995ZM75.7943 42.6543C75.7943 42.7919 75.7854 42.9162 75.7677 43.0272H72.9645C72.9867 43.3202 73.0954 43.5554 73.2907 43.733C73.4861 43.9105 73.7258 43.9993 74.0098 43.9993C74.4182 43.9993 74.7068 43.8284 74.8754 43.4866H75.6944C75.5835 43.824 75.3815 44.1014 75.0885 44.3189C74.8 44.532 74.4404 44.6385 74.0098 44.6385C73.6592 44.6385 73.344 44.5609 73.0643 44.4055C72.7891 44.2457 72.5716 44.0237 72.4118 43.7396C72.2565 43.4511 72.1788 43.1182 72.1788 42.7409C72.1788 42.3636 72.2542 42.0329 72.4052 41.7488C72.5605 41.4602 72.7758 41.2383 73.051 41.0829C73.3307 40.9276 73.6503 40.8499 74.0098 40.8499C74.3561 40.8499 74.6646 40.9253 74.9354 41.0763C75.2062 41.2272 75.417 41.4403 75.5679 41.7155C75.7189 41.9863 75.7943 42.2992 75.7943 42.6543ZM75.002 42.4146C74.9975 42.135 74.8976 41.9108 74.7023 41.7421C74.507 41.5734 74.2651 41.4891 73.9766 41.4891C73.7147 41.4891 73.4905 41.5734 73.3041 41.7421C73.1176 41.9064 73.0066 42.1305 72.9711 42.4146H75.002Z" fill="white"/>
</svg>
