<svg width="750" height="458" viewBox="0 0 750 458" fill="none" xmlns="http://www.w3.org/2000/svg">
<path d="M407.67 24.2498L328.38 291.76C326.08 299.51 318.96 304.82 310.88 304.82H281.95C273.75 304.82 266.56 299.35 264.37 291.45L221.28 136.19C216.37 118.51 191.38 118.31 186.19 135.91L140.25 291.83C137.98 299.54 130.93 304.86 122.89 304.92L94.3499 305.14C86.1299 305.2 78.8899 299.77 76.6499 291.86L0.839888 24.0198C-2.46011 12.3698 6.28989 0.799805 18.3999 0.799805H33.0099C41.3599 0.799805 48.6399 6.4598 50.6999 14.5498L93.2099 181.64C97.8299 199.79 123.51 200.04 128.49 181.99L174.74 14.1998C176.92 6.27983 184.12 0.799805 192.33 0.799805H220.28C228.61 0.799805 235.88 6.43982 237.95 14.4998L280.18 178.46C284.88 196.72 310.82 196.72 315.53 178.46L357.76 14.4998C359.84 6.43982 367.11 0.799805 375.43 0.799805H390.21C402.41 0.799805 411.17 12.5398 407.71 24.2398L407.67 24.2498Z" fill="white"/>
<path d="M342.33 281.83L421.62 14.32C423.92 6.56995 431.04 1.25995 439.12 1.25995H468.05C476.25 1.25995 483.44 6.72995 485.63 14.6299L528.72 169.89C533.63 187.57 558.62 187.77 563.81 170.17L609.75 14.2499C612.02 6.53994 619.07 1.21995 627.11 1.15995L655.65 0.939945C663.87 0.879945 671.11 6.30994 673.35 14.2199L749.16 282.06C752.46 293.71 743.71 305.28 731.6 305.28H716.99C708.64 305.28 701.36 299.62 699.3 291.53L656.79 124.44C652.17 106.29 626.49 106.04 621.51 124.09L575.26 291.88C573.08 299.8 565.88 305.28 557.67 305.28H529.72C521.39 305.28 514.12 299.64 512.05 291.58L469.82 127.62C465.12 109.36 439.18 109.36 434.47 127.62L392.24 291.58C390.16 299.64 382.89 305.28 374.57 305.28H359.79C347.59 305.28 338.83 293.54 342.29 281.84L342.33 281.83Z" fill="#E3FF04"/>
<path d="M359.95 279.7L415.66 90.1597C417.84 82.7297 411.07 75.9597 401.66 75.1997L382.67 76.5497C381.56 76.6297 380.56 76.9397 379.52 77.1697C374.5 78.8897 370.72 82.3997 369.68 86.6697C369.68 86.6697 332.62 230.07 326.5 250.33L320.15 275.63C317.97 283.06 324.74 289.83 334.15 290.59L344.85 289.83C352.19 289.31 358.34 285.19 359.95 279.7Z" fill="black"/>
<path d="M408.43 71.6297C425.473 71.6297 439.29 57.8132 439.29 40.7697C439.29 23.7261 425.473 9.90967 408.43 9.90967C391.386 9.90967 377.57 23.7261 377.57 40.7697C377.57 57.8132 391.386 71.6297 408.43 71.6297Z" fill="black"/>
<path d="M43.088 386.944C47.824 386.944 52.0267 388.117 55.696 390.464C59.408 392.768 62.096 396.053 63.76 400.32H54.992C53.84 398.101 52.24 396.437 50.192 395.328C48.144 394.176 45.776 393.6 43.088 393.6C40.144 393.6 37.52 394.261 35.216 395.584C32.912 396.907 31.0987 398.784 29.776 401.216C28.496 403.648 27.856 406.464 27.856 409.664C27.856 412.864 28.496 415.701 29.776 418.176C31.0987 420.608 32.912 422.485 35.216 423.808C37.52 425.131 40.144 425.792 43.088 425.792C45.776 425.792 48.144 425.237 50.192 424.128C52.24 422.976 53.84 421.291 54.992 419.072H63.76C62.096 423.339 59.408 426.624 55.696 428.928C52.0267 431.232 47.824 432.384 43.088 432.384C38.9067 432.384 35.088 431.424 31.632 429.504C28.176 427.541 25.424 424.832 23.376 421.376C21.3707 417.92 20.368 414.016 20.368 409.664C20.368 405.312 21.3707 401.408 23.376 397.952C25.424 394.496 28.176 391.808 31.632 389.888C35.1307 387.925 38.9493 386.944 43.088 386.944ZM142.316 402.88C143.383 400.747 144.791 399.104 146.54 397.952C148.332 396.757 150.444 396.16 152.876 396.16V403.712H151.02C148.161 403.712 145.985 404.437 144.492 405.888C143.041 407.339 142.316 409.856 142.316 413.44V432H135.02V396.736H142.316V402.88ZM254.623 413.376C254.623 414.613 254.537 415.765 254.367 416.832H227.359C227.529 419.776 228.511 422.123 230.303 423.872C232.137 425.579 234.42 426.432 237.151 426.432C241.119 426.432 243.913 424.789 245.535 421.504H253.407C252.34 424.747 250.399 427.413 247.583 429.504C244.767 431.552 241.289 432.576 237.151 432.576C233.78 432.576 230.793 431.829 228.191 430.336C225.588 428.8 223.54 426.667 222.047 423.936C220.596 421.163 219.871 417.963 219.871 414.336C219.871 410.709 220.596 407.531 222.047 404.8C223.54 402.027 225.609 399.893 228.255 398.4C230.943 396.907 234.015 396.16 237.471 396.16C240.799 396.16 243.764 396.885 246.367 398.336C248.969 399.787 250.996 401.813 252.447 404.416C253.897 407.019 254.623 410.005 254.623 413.376ZM247.007 411.84C246.964 408.939 246.004 406.635 244.127 404.928C242.249 403.179 239.924 402.304 237.151 402.304C234.548 402.304 232.329 403.179 230.495 404.928C228.703 406.635 227.679 408.939 227.423 411.84H247.007ZM338.731 396.16C341.504 396.16 343.936 396.8 346.027 398.08C348.16 399.317 349.803 400.96 350.955 403.008V396.736H358.315V432H350.955V425.408C349.76 427.584 348.117 429.333 346.027 430.656C343.936 431.936 341.504 432.576 338.731 432.576C335.659 432.576 332.843 431.808 330.283 430.272C327.765 428.693 325.76 426.517 324.267 423.744C322.816 420.928 322.091 417.749 322.091 414.208C322.091 410.667 322.816 407.531 324.267 404.8C325.76 402.069 327.765 399.957 330.283 398.464C332.843 396.928 335.659 396.16 338.731 396.16ZM340.267 402.496C338.389 402.496 336.64 402.965 335.019 403.904C333.397 404.8 332.075 406.144 331.051 407.936C330.069 409.685 329.579 411.776 329.579 414.208C329.579 416.64 330.069 418.773 331.051 420.608C332.075 422.443 333.397 423.851 335.019 424.832C336.683 425.771 338.432 426.24 340.267 426.24C342.144 426.24 343.893 425.771 345.515 424.832C347.136 423.893 348.437 422.528 349.419 420.736C350.443 418.901 350.955 416.768 350.955 414.336C350.955 411.904 350.443 409.792 349.419 408C348.437 406.208 347.136 404.843 345.515 403.904C343.893 402.965 342.144 402.496 340.267 402.496ZM439.13 402.688V422.208C439.13 423.531 439.428 424.491 440.026 425.088C440.666 425.643 441.732 425.92 443.226 425.92H447.706V432H441.946C438.66 432 436.143 431.232 434.394 429.696C432.644 428.16 431.77 425.664 431.77 422.208V402.688H427.61V396.736H431.77V387.968H439.13V396.736H447.706V402.688H439.13ZM516.19 387.392C516.19 386.069 516.638 384.96 517.534 384.064C518.43 383.168 519.539 382.72 520.862 382.72C522.142 382.72 523.23 383.168 524.126 384.064C525.022 384.96 525.47 386.069 525.47 387.392C525.47 388.715 525.022 389.824 524.126 390.72C523.23 391.616 522.142 392.064 520.862 392.064C519.539 392.064 518.43 391.616 517.534 390.72C516.638 389.824 516.19 388.715 516.19 387.392ZM524.446 396.736V432H517.15V396.736H524.446ZM610.377 425.472L620.361 396.736H628.233L614.793 432H605.961L592.585 396.736H600.393L610.377 425.472ZM728.66 413.376C728.66 414.613 728.575 415.765 728.404 416.832H701.396C701.567 419.776 702.548 422.123 704.34 423.872C706.175 425.579 708.457 426.432 711.188 426.432C715.156 426.432 717.951 424.789 719.572 421.504H727.444C726.377 424.747 724.436 427.413 721.62 429.504C718.804 431.552 715.327 432.576 711.188 432.576C707.817 432.576 704.831 431.829 702.228 430.336C699.625 428.8 697.577 426.667 696.084 423.936C694.633 421.163 693.908 417.963 693.908 414.336C693.908 410.709 694.633 407.531 696.084 404.8C697.577 402.027 699.647 399.893 702.292 398.4C704.98 396.907 708.052 396.16 711.508 396.16C714.836 396.16 717.801 396.885 720.404 398.336C723.007 399.787 725.033 401.813 726.484 404.416C727.935 407.019 728.66 410.005 728.66 413.376ZM721.044 411.84C721.001 408.939 720.041 406.635 718.164 404.928C716.287 403.179 713.961 402.304 711.188 402.304C708.585 402.304 706.367 403.179 704.532 404.928C702.74 406.635 701.716 408.939 701.46 411.84H721.044Z" fill="white"/>
</svg>
